<svg width="15" height="16" viewBox="0 0 15 16" fill="none" xmlns="http://www.w3.org/2000/svg">
<path d="M14.7536 14.4753L11.9212 11.463C12.835 10.2211 13.3309 8.68756 13.329 7.10882C13.329 5.70283 12.9382 4.32841 12.2059 3.15937C11.4736 1.99033 10.4327 1.07918 9.21492 0.54113C7.99714 0.00308012 6.65713 -0.137698 5.36434 0.136597C4.07155 0.410893 2.88404 1.08794 1.952 2.08213C1.01995 3.07631 0.385212 4.34299 0.12806 5.72196C-0.129092 7.10094 0.00288761 8.53028 0.507309 9.82925C1.01173 11.1282 1.86594 12.2385 2.96191 13.0196C4.05789 13.8007 5.3464 14.2176 6.66452 14.2176C8.14459 14.2196 9.58229 13.6907 10.7465 12.7159L13.5706 15.7372C13.6481 15.8204 13.7402 15.8865 13.8417 15.9317C13.9432 15.9768 14.0521 16 14.1621 16C14.2721 16 14.381 15.9768 14.4825 15.9317C14.584 15.8865 14.6761 15.8204 14.7536 15.7372C14.8317 15.6545 14.8936 15.5563 14.9359 15.448C14.9782 15.3397 15 15.2236 15 15.1062C15 14.9889 14.9782 14.8728 14.9359 14.7645C14.8936 14.6562 14.8317 14.5579 14.7536 14.4753ZM1.66613 7.10882C1.66613 6.05433 1.95928 5.02352 2.50851 4.14674C3.05774 3.26996 3.83838 2.58659 4.75172 2.18305C5.66506 1.77952 6.67007 1.67393 7.63966 1.87965C8.60925 2.08538 9.49988 2.59316 10.1989 3.3388C10.898 4.08444 11.374 5.03444 11.5669 6.06868C11.7597 7.10291 11.6607 8.17492 11.2824 9.14914C10.9041 10.1234 10.2635 10.9561 9.44148 11.5419C8.6195 12.1277 7.65311 12.4404 6.66452 12.4404C5.33887 12.4404 4.06751 11.8787 3.13013 10.8788C2.19275 9.87897 1.66613 8.52285 1.66613 7.10882Z" fill="#425362"/>
</svg>
